<svg width="1180" height="146" viewBox="0 0 1180 146" fill="none" xmlns="http://www.w3.org/2000/svg">
<path opacity="0.2" fill-rule="evenodd" clip-rule="evenodd" d="M76.0084 93.1856V62.2184H145.116V123.112L144.676 123.409C131.788 132.115 120.325 138.091 110.296 141.297L110.292 141.299C100.328 144.441 88.5263 146 74.9064 146C58.1237 146 44.3332 143.166 33.5967 137.426L33.5945 137.425C22.9265 131.688 14.6403 123.146 8.73888 111.834L8.7368 111.83C2.90291 100.524 0 87.5721 0 73C0 57.6629 3.19273 44.2858 9.61657 32.9032C16.0479 21.444 25.4717 12.7545 37.8551 6.84312L37.859 6.8413C47.5676 2.2565 60.5465 0 76.7275 0C92.286 0 104.028 1.39208 111.866 4.2402C119.75 7.08173 126.288 11.5146 131.454 17.5407C136.68 23.4981 140.574 31.0454 143.161 40.148L143.463 41.2072L99.6203 48.9624L99.3491 48.1363C97.6849 43.0662 94.8712 39.2381 90.924 36.5901L90.918 36.5861C87.0386 33.9429 82.0136 32.582 75.769 32.582C66.5127 32.582 59.1992 35.7688 53.7217 42.112C48.3284 48.3685 45.5288 58.4339 45.5288 72.525C45.5288 87.5195 48.3669 97.9804 53.8094 104.164C59.335 110.369 67.0251 113.513 77.0151 113.513C81.7728 113.513 86.302 112.831 90.6074 111.47C94.7939 110.147 99.6063 107.907 105.051 104.728V93.1856H76.0084ZM106.057 92.188V105.297C100.37 108.653 95.3222 111.028 90.9132 112.421C86.5041 113.814 81.8714 114.511 77.0151 114.511C66.7911 114.511 58.8037 111.281 53.0528 104.822C47.3657 98.3623 44.5222 87.5968 44.5222 72.525C44.5222 58.3399 47.3338 47.986 52.9569 41.4633C58.644 34.8774 66.248 31.5844 75.769 31.5844C82.159 31.5844 87.3987 32.9776 91.4883 35.764C95.6417 38.5503 98.5811 42.5716 100.306 47.8277L142.192 40.4185C142.101 40.0952 142.007 39.7739 141.912 39.4547C139.359 30.8954 135.619 23.8074 130.691 18.1908C125.643 12.3014 119.253 7.96357 111.521 5.17719C103.853 2.39082 92.2551 0.997638 76.7275 0.997638C60.6248 0.997638 47.813 3.24573 38.292 7.74192C26.0872 13.568 16.8218 22.1171 10.4957 33.3892C4.16968 44.598 1.00666 57.8016 1.00666 73C1.00666 87.4385 3.88214 100.23 9.63309 111.376C15.4479 122.521 23.5951 130.912 34.0746 136.548C44.618 142.184 58.2286 145.002 74.9064 145.002C88.4531 145.002 100.147 143.451 109.987 140.348C119.892 137.182 131.266 131.26 144.109 122.585V63.216H77.0151V92.188H106.057ZM247.546 142.628L240.645 119.64H191.187L184.381 142.628H140.003L192.816 3.37239H240.166L290.789 136.855V3.37239H347.915L369.961 88.1034L391.91 3.37239H448.845V142.628H413.38V36.4289L385.872 142.628H353.762L326.349 36.4289V142.628H247.546ZM246.795 143.625L239.894 120.638H191.94L185.135 143.625H138.55L192.119 2.37475H240.863L289.783 131.365V2.37475H348.695L369.959 84.0996L391.129 2.37475H449.851V143.625H412.374V44.3274L386.653 143.625H352.981L327.356 44.3542V143.625H246.795ZM216.012 39.4686L200.58 89.5282H231.539L216.012 39.4686ZM216.015 42.8734L201.94 88.5306H230.177L216.015 42.8734ZM459.834 2.37475H578.209V34.1019H505.363V54.2392H572.937V84.6365H505.363V110.093H580.317V143.625H459.834V2.37475ZM504.357 111.091V83.6389H571.93V55.2369H504.357V33.1042H577.202V3.37239H460.841V142.628H579.311V111.091H504.357ZM745.27 137.228L745.268 137.229C734.663 143.097 721.478 146 705.766 146C689.82 146 676.527 143.484 665.933 138.396L665.931 138.395C655.384 133.298 646.841 125.237 640.297 114.258C633.729 103.237 630.477 89.497 630.477 73.095C630.477 50.171 636.925 32.1896 649.941 19.2902C662.956 6.39178 681.036 0 704.041 0C727.609 0 745.916 6.28967 758.81 19.0034C771.7 31.6501 778.085 49.3481 778.085 71.9551C778.085 88.3341 775.289 101.87 769.63 112.506C764.042 123.065 755.915 131.31 745.27 137.228ZM768.739 112.041C774.299 101.592 777.078 88.23 777.078 71.9551C777.078 49.5375 770.752 32.1227 758.1 19.7107C745.448 7.23531 727.428 0.997638 704.041 0.997638C681.229 0.997638 663.433 7.3303 650.653 19.9956C637.873 32.6609 631.483 50.3607 631.483 73.095C631.483 89.3699 634.71 102.922 641.164 113.751C647.618 124.58 656.021 132.495 666.372 137.498C676.788 142.501 689.919 145.002 705.766 145.002C721.358 145.002 734.361 142.121 744.777 136.358C755.257 130.532 763.244 122.426 768.739 112.041ZM724.853 43.3591L724.846 43.3507C719.759 37.5198 712.832 34.5768 703.945 34.5768C695.461 34.5768 688.72 37.5384 683.623 43.4418C678.557 49.3101 675.91 59.1754 675.91 73.285C675.91 87.2635 678.523 97.0677 683.528 102.938C688.617 108.833 695.512 111.803 704.329 111.803C713.419 111.803 720.334 108.885 725.221 103.134C730.088 97.4059 732.652 86.9249 732.652 71.3852C732.652 58.3757 729.982 49.1077 724.853 43.3591ZM682.763 103.587C677.523 97.4441 674.903 87.3435 674.903 73.285C674.903 59.0998 677.555 48.9359 682.858 42.7932C688.162 36.6505 695.191 33.5792 703.945 33.5792C713.083 33.5792 720.304 36.6189 725.607 42.6982C730.975 48.7142 733.659 58.2766 733.659 71.3852C733.659 86.9635 731.103 97.7607 725.991 103.777C720.879 109.793 713.658 112.801 704.329 112.801C695.255 112.801 688.066 109.729 682.763 103.587ZM760.972 2.37475H808.601L839.484 100.222L869.899 2.37475H1030.68V34.1019H957.833V54.2392H1025.41V84.6365H957.833V110.093H1032.79V143.625H912.304V12.7275L863.291 143.625H814.833L760.972 2.37475ZM913.31 7.17129V142.628H1031.78V111.091H956.826V83.6389H1024.4V55.2369H956.826V33.1042H1029.67V3.37239H870.642L839.491 103.587L807.861 3.37239H762.429L815.529 142.628H862.591L913.31 7.17129ZM1039.13 143.625V2.37475H1112.5C1125.95 2.37475 1136.34 3.51498 1143.58 5.84305C1150.88 8.19126 1156.78 12.5691 1161.25 18.948C1165.73 25.2873 1167.95 33.0008 1167.95 42.0333C1167.95 49.9033 1166.26 56.7647 1162.83 62.5794L1162.83 62.5837C1159.41 68.3042 1154.72 72.9488 1148.77 76.5135L1148.25 75.6597C1154.07 72.1767 1158.64 67.6489 1161.96 62.0762C1165.28 56.4401 1166.94 49.7591 1166.94 42.0333C1166.94 33.1676 1164.77 25.6634 1160.42 19.5207C1156.08 13.3147 1150.36 9.07178 1143.27 6.79202C1136.18 4.51226 1125.92 3.37239 1112.5 3.37239H1040.13V142.628H1083.75V86.1086H1087.58C1091.54 86.1086 1095.09 87.1852 1098.22 89.3383C1100.52 90.9848 1103.14 94.5627 1106.08 100.072L1129.27 142.628H1178.35L1157.36 102.257C1156.34 100.23 1154.29 97.3491 1151.22 93.6128C1148.22 89.8765 1145.92 87.4385 1144.32 86.2986C1142.24 84.7913 1139.06 83.2841 1134.79 81.7768C1134.22 81.5743 1133.63 81.3717 1133.01 81.1691C1133.64 81.0284 1134.25 80.8842 1134.84 80.7364C1140.43 79.3543 1144.9 77.6621 1148.25 75.6597L1148.77 76.5135C1145.61 78.4071 1141.51 80.0106 1136.51 81.3391C1140.14 82.6974 1142.96 84.0767 1144.91 85.489C1146.63 86.7172 1149.01 89.2534 1152 92.9832C1155.08 96.7241 1157.18 99.6746 1158.26 101.805C1158.26 101.807 1158.26 101.809 1158.26 101.811L1180 143.625H1128.67L1105.19 100.546L1105.19 100.538C1102.26 95.0456 1099.73 91.6557 1097.64 90.153C1094.68 88.124 1091.34 87.1062 1087.58 87.1062H1084.75V143.625H1039.13ZM1113.35 56.9206L1113.36 56.9183C1115.99 56.3968 1118.11 55.076 1119.75 52.9251L1119.75 52.9183L1119.76 52.9116C1121.47 50.7481 1122.32 48.2746 1122.32 45.4529C1122.32 41.1842 1120.97 38.0391 1118.37 35.8612C1117.1 34.7988 1115.2 33.9469 1112.59 33.3651C1109.99 32.785 1106.74 32.487 1102.82 32.487H1084.75V58.7988H1102.05C1103.9 58.7988 1107.63 58.1936 1113.33 56.9232L1113.35 56.9206ZM1083.75 59.7964V31.4894H1102.82C1110.74 31.4894 1116.14 32.6926 1119.02 35.099C1121.89 37.5054 1123.33 40.9567 1123.33 45.4529C1123.33 48.4926 1122.4 51.184 1120.55 53.5271C1118.76 55.8702 1116.43 57.3267 1113.55 57.8966C1107.87 59.1631 1104.03 59.7964 1102.05 59.7964H1083.75Z" fill="#CD06FF"/>
</svg>
