
<svg xmlns="http://www.w3.org/2000/svg"
xmlns:xlink="http://www.w3.org/1999/xlink" version="1.1">

<symbol id="inst" viewBox="0 0 48 48">
  <path d="M31.5001 23.9998C31.5001 25.9889 30.71 27.8965 29.3034 29.3031C27.8969 30.7096 25.9892 31.4998 24.0001 31.4998C22.011 31.4998 20.1033 30.7096 18.6968 29.3031C17.2903 27.8965 16.5001 25.9889 16.5001 23.9998C16.5001 23.5723 16.5451 23.1548 16.6226 22.7498H14.0001V32.7423C14.0001 33.4373 14.5626 33.9998 15.2576 33.9998H32.7451C33.0782 33.9991 33.3974 33.8663 33.6327 33.6306C33.868 33.3948 34.0001 33.0753 34.0001 32.7423V22.7498H31.3776C31.4551 23.1548 31.5001 23.5723 31.5001 23.9998ZM24.0001 28.9998C24.6569 28.9996 25.3072 28.8701 25.9139 28.6186C26.5206 28.3671 27.0719 27.9986 27.5362 27.534C28.0005 27.0695 28.3687 26.5181 28.6199 25.9112C28.8711 25.3044 29.0003 24.654 29.0001 23.9973C29 23.3405 28.8704 22.6902 28.6189 22.0835C28.3675 21.4767 27.9989 20.9255 27.5344 20.4612C27.0699 19.9969 26.5185 19.6287 25.9116 19.3775C25.3048 19.1263 24.6544 18.9971 23.9976 18.9973C22.6712 18.9976 21.3993 19.5248 20.4616 20.463C19.5239 21.4011 18.9973 22.6733 18.9976 23.9998C18.998 25.3262 19.5252 26.5981 20.4633 27.5358C21.4015 28.4735 22.6737 29.0001 24.0001 28.9998ZM30.0001 18.7498H32.9976C33.1968 18.7498 33.3878 18.6708 33.5288 18.5302C33.6699 18.3897 33.7495 18.1989 33.7501 17.9998V15.0023C33.7501 14.8027 33.6708 14.6113 33.5297 14.4702C33.3886 14.329 33.1972 14.2498 32.9976 14.2498H30.0001C29.8005 14.2498 29.6091 14.329 29.468 14.4702C29.3269 14.6113 29.2476 14.8027 29.2476 15.0023V17.9998C29.2501 18.4123 29.5876 18.7498 30.0001 18.7498ZM24.0001 -0.000244141C17.6349 -0.000244141 11.5304 2.52832 7.02956 7.02919C2.52869 11.5301 0.00012207 17.6346 0.00012207 23.9998C0.00012207 30.365 2.52869 36.4694 7.02956 40.9703C11.5304 45.4712 17.6349 47.9998 24.0001 47.9998C27.1518 47.9998 30.2727 47.379 33.1845 46.1729C36.0963 44.9667 38.7421 43.1989 40.9707 40.9703C43.1993 38.7417 44.9671 36.096 46.1732 33.1842C47.3793 30.2723 48.0001 27.1515 48.0001 23.9998C48.0001 20.848 47.3793 17.7272 46.1732 14.8154C44.9671 11.9035 43.1993 9.2578 40.9707 7.02919C38.7421 4.80059 36.0963 3.03276 33.1845 1.82665C30.2727 0.620534 27.1518 -0.000244141 24.0001 -0.000244141ZM36.5001 33.7223C36.5001 35.2498 35.2501 36.4998 33.7226 36.4998H14.2776C12.7501 36.4998 11.5001 35.2498 11.5001 33.7223V14.2773C11.5001 12.7498 12.7501 11.4998 14.2776 11.4998H33.7226C35.2501 11.4998 36.5001 12.7498 36.5001 14.2773V33.7223Z"/>
</symbol>

<symbol id="tg" viewBox="0 0 50 50">
  <path d="M50.0001 25C50.0001 31.6304 47.3662 37.9893 42.6778 42.6777C37.9894 47.3661 31.6305 50 25.0001 50C18.3697 50 12.0109 47.3661 7.32245 42.6777C2.63404 37.9893 0.00012207 31.6304 0.00012207 25C0.00012207 18.3696 2.63404 12.0107 7.32245 7.32233C12.0109 2.63392 18.3697 0 25.0001 0C31.6305 0 37.9894 2.63392 42.6778 7.32233C47.3662 12.0107 50.0001 18.3696 50.0001 25ZM25.897 18.4563C23.4657 19.4688 18.6032 21.5625 11.3157 24.7375C10.1345 25.2062 9.51262 25.6687 9.45637 26.1187C9.36262 26.8781 10.3157 27.1781 11.6126 27.5875L12.1595 27.7594C13.4345 28.175 15.1532 28.6594 16.0439 28.6781C16.8564 28.6969 17.7595 28.3656 18.7564 27.6781C25.5657 23.0813 29.0814 20.7594 29.3001 20.7094C29.4564 20.6719 29.6751 20.6281 29.8189 20.7594C29.9657 20.8875 29.9501 21.1344 29.9345 21.2C29.8407 21.6031 26.1001 25.0781 24.1657 26.8781C23.5626 27.4406 23.1345 27.8375 23.047 27.9281C22.8543 28.125 22.6585 28.3188 22.4595 28.5094C21.272 29.6531 20.3845 30.5094 22.5064 31.9094C23.5282 32.5844 24.347 33.1375 25.1626 33.6937C26.0501 34.3 26.9376 34.9031 28.0876 35.6594C28.3782 35.8469 28.6595 36.05 28.9314 36.2437C29.9657 36.9812 30.9001 37.6437 32.047 37.5375C32.7157 37.475 33.4064 36.85 33.7564 34.975C34.5845 30.5469 36.2126 20.9562 36.5876 17.0031C36.6105 16.6745 36.5969 16.3444 36.547 16.0187C36.5176 15.756 36.3904 15.5139 36.1907 15.3406C35.9064 15.1443 35.5674 15.0427 35.222 15.05C34.2845 15.0656 32.8376 15.5688 25.897 18.4563Z"/>
</symbol>

<symbol id="vk" viewBox="0 0 48 48">
  <path d="M24.0001 0C10.7451 0 0.00012207 10.745 0.00012207 24C0.00012207 37.255 10.7451 48 24.0001 48C37.2551 48 48.0001 37.255 48.0001 24C48.0001 10.745 37.2551 0 24.0001 0ZM33.2301 27.0775C33.2301 27.0775 35.3526 29.1725 35.8751 30.145C35.8901 30.165 35.8976 30.185 35.9026 30.195C36.1151 30.5525 36.1651 30.83 36.0601 31.0375C35.8851 31.3825 35.2851 31.5525 35.0801 31.5675H31.3301C31.0701 31.5675 30.5251 31.5 29.8651 31.045C29.3576 30.69 28.8576 30.1075 28.3701 29.54C27.6426 28.695 27.0126 27.965 26.3776 27.965C26.297 27.9649 26.2168 27.9775 26.1401 28.0025C25.6601 28.1575 25.0451 28.8425 25.0451 30.6675C25.0451 31.2375 24.5951 31.565 24.2776 31.565H22.5601C21.9751 31.565 18.9276 31.36 16.2276 28.5125C12.9226 25.025 9.94762 18.03 9.92262 17.965C9.73512 17.5125 10.1226 17.27 10.5451 17.27H14.3326C14.8376 17.27 15.0026 17.5775 15.1176 17.85C15.2526 18.1675 15.7476 19.43 16.5601 20.85C17.8776 23.165 18.6851 24.105 19.3326 24.105C19.454 24.1036 19.5733 24.0727 19.6801 24.015C20.5251 23.545 20.3676 20.5325 20.3301 19.9075C20.3301 19.79 20.3276 18.56 19.8951 17.97C19.5851 17.5425 19.0576 17.38 18.7376 17.32C18.8671 17.1413 19.0378 16.9964 19.2351 16.8975C19.8151 16.6075 20.8601 16.565 21.8976 16.565H22.4751C23.6001 16.58 23.8901 16.6525 24.2976 16.755C25.1226 16.9525 25.1401 17.485 25.0676 19.3075C25.0451 19.825 25.0226 20.41 25.0226 21.1C25.0226 21.25 25.0151 21.41 25.0151 21.58C24.9901 22.5075 24.9601 23.56 25.6151 23.9925C25.7006 24.0461 25.7993 24.0747 25.9001 24.075C26.1276 24.075 26.8126 24.075 28.6676 20.8925C29.2397 19.8681 29.7369 18.8037 30.1551 17.7075C30.1926 17.6425 30.3026 17.4425 30.4326 17.365C30.5286 17.3161 30.6349 17.2912 30.7426 17.2925H35.1951C35.6801 17.2925 36.0126 17.365 36.0751 17.5525C36.1851 17.85 36.0551 18.7575 34.0226 21.51L33.1151 22.7075C31.2726 25.1225 31.2726 25.245 33.2301 27.0775V27.0775Z"/>
</symbol>

<symbol id="fb" viewBox="0 0 50 50">
  <path fill-rule="evenodd" clip-rule="evenodd" d="M0.00012207 25.1396C0.00012207 37.5687 9.0272 47.9042 20.8335 50V31.9437H14.5835V25H20.8335V19.4438C20.8335 13.1938 24.8605 9.72292 30.5564 9.72292C32.3605 9.72292 34.3064 10 36.1105 10.2771V16.6667H32.9168C29.8605 16.6667 29.1668 18.1937 29.1668 20.1396V25H35.8335L34.723 31.9437H29.1668V50C40.973 47.9042 50.0001 37.5708 50.0001 25.1396C50.0001 11.3125 38.7501 0 25.0001 0C11.2501 0 0.00012207 11.3125 0.00012207 25.1396Z"/>
</symbol>

</svg>