
<svg xmlns="http://www.w3.org/2000/svg"
xmlns:xlink="http://www.w3.org/1999/xlink" version="1.1">

<symbol id="printerest" viewBox="0 0 50 50">
  <g clip-path="url(#clip0_1355_8)">
    <path d="M25.0005 0C11.1947 0 -0.000152588 11.1936 -0.000152588 25.0006C-0.000152588 35.2378 6.15562 44.0314 14.9646 47.8981C14.8941 46.1526 14.9511 44.0558 15.3998 42.159C15.8806 40.1282 18.6165 28.5359 18.6165 28.5359C18.6165 28.5359 17.8178 26.9397 17.8178 24.5808C17.8178 20.8763 19.9652 18.1077 22.6383 18.1077C24.912 18.1077 26.0107 19.8154 26.0107 21.8609C26.0107 24.1468 24.5537 27.5635 23.8037 30.7327C23.1768 33.3859 25.1338 35.5481 27.7498 35.5481C32.4864 35.5481 35.6761 29.4647 35.6761 22.2558C35.6761 16.7782 31.9864 12.6769 25.2742 12.6769C17.6902 12.6769 12.9659 18.3321 12.9659 24.6487C12.9659 26.8282 13.6082 28.3635 14.6146 29.5513C15.0768 30.0981 15.1409 30.318 14.9736 30.9462C14.8537 31.4058 14.5781 32.5128 14.4646 32.9519C14.2986 33.5853 13.7857 33.8109 13.2127 33.5776C9.71972 32.1513 8.0928 28.3263 8.0928 24.0263C8.0928 16.9237 14.0819 8.40898 25.9601 8.40898C35.5056 8.40898 41.7877 15.316 41.7877 22.732C41.7877 32.5378 36.3351 39.8647 28.2979 39.8647C25.5998 39.8647 23.0607 38.4051 22.1909 36.7487C22.1909 36.7487 20.7396 42.5077 20.4325 43.6218C19.9024 45.5494 18.8646 47.4763 17.9159 48.9769C20.2162 49.6571 22.6024 50.0025 25.0011 50.0026C38.8063 50.0013 49.9998 38.8071 49.9998 25.0006C49.9998 11.1936 38.8063 0 25.0005 0Z"/>
  </g>
  <defs>
    <clipPath id="clip0_1355_8">
      <rect width="50" height="50"/>
    </clipPath>
  </defs>
</symbol>

<symbol id="tg" viewBox="0 0 50 50">
  <path d="M50.0001 25C50.0001 31.6304 47.3662 37.9893 42.6778 42.6777C37.9894 47.3661 31.6305 50 25.0001 50C18.3697 50 12.0109 47.3661 7.32245 42.6777C2.63404 37.9893 0.00012207 31.6304 0.00012207 25C0.00012207 18.3696 2.63404 12.0107 7.32245 7.32233C12.0109 2.63392 18.3697 0 25.0001 0C31.6305 0 37.9894 2.63392 42.6778 7.32233C47.3662 12.0107 50.0001 18.3696 50.0001 25ZM25.897 18.4563C23.4657 19.4688 18.6032 21.5625 11.3157 24.7375C10.1345 25.2062 9.51262 25.6687 9.45637 26.1187C9.36262 26.8781 10.3157 27.1781 11.6126 27.5875L12.1595 27.7594C13.4345 28.175 15.1532 28.6594 16.0439 28.6781C16.8564 28.6969 17.7595 28.3656 18.7564 27.6781C25.5657 23.0813 29.0814 20.7594 29.3001 20.7094C29.4564 20.6719 29.6751 20.6281 29.8189 20.7594C29.9657 20.8875 29.9501 21.1344 29.9345 21.2C29.8407 21.6031 26.1001 25.0781 24.1657 26.8781C23.5626 27.4406 23.1345 27.8375 23.047 27.9281C22.8543 28.125 22.6585 28.3188 22.4595 28.5094C21.272 29.6531 20.3845 30.5094 22.5064 31.9094C23.5282 32.5844 24.347 33.1375 25.1626 33.6937C26.0501 34.3 26.9376 34.9031 28.0876 35.6594C28.3782 35.8469 28.6595 36.05 28.9314 36.2437C29.9657 36.9812 30.9001 37.6437 32.047 37.5375C32.7157 37.475 33.4064 36.85 33.7564 34.975C34.5845 30.5469 36.2126 20.9562 36.5876 17.0031C36.6105 16.6745 36.5969 16.3444 36.547 16.0187C36.5176 15.756 36.3904 15.5139 36.1907 15.3406C35.9064 15.1443 35.5674 15.0427 35.222 15.05C34.2845 15.0656 32.8376 15.5688 25.897 18.4563Z"/>
</symbol>

<symbol id="vk" viewBox="0 0 48 48">
  <path d="M24.0001 0C10.7451 0 0.00012207 10.745 0.00012207 24C0.00012207 37.255 10.7451 48 24.0001 48C37.2551 48 48.0001 37.255 48.0001 24C48.0001 10.745 37.2551 0 24.0001 0ZM33.2301 27.0775C33.2301 27.0775 35.3526 29.1725 35.8751 30.145C35.8901 30.165 35.8976 30.185 35.9026 30.195C36.1151 30.5525 36.1651 30.83 36.0601 31.0375C35.8851 31.3825 35.2851 31.5525 35.0801 31.5675H31.3301C31.0701 31.5675 30.5251 31.5 29.8651 31.045C29.3576 30.69 28.8576 30.1075 28.3701 29.54C27.6426 28.695 27.0126 27.965 26.3776 27.965C26.297 27.9649 26.2168 27.9775 26.1401 28.0025C25.6601 28.1575 25.0451 28.8425 25.0451 30.6675C25.0451 31.2375 24.5951 31.565 24.2776 31.565H22.5601C21.9751 31.565 18.9276 31.36 16.2276 28.5125C12.9226 25.025 9.94762 18.03 9.92262 17.965C9.73512 17.5125 10.1226 17.27 10.5451 17.27H14.3326C14.8376 17.27 15.0026 17.5775 15.1176 17.85C15.2526 18.1675 15.7476 19.43 16.5601 20.85C17.8776 23.165 18.6851 24.105 19.3326 24.105C19.454 24.1036 19.5733 24.0727 19.6801 24.015C20.5251 23.545 20.3676 20.5325 20.3301 19.9075C20.3301 19.79 20.3276 18.56 19.8951 17.97C19.5851 17.5425 19.0576 17.38 18.7376 17.32C18.8671 17.1413 19.0378 16.9964 19.2351 16.8975C19.8151 16.6075 20.8601 16.565 21.8976 16.565H22.4751C23.6001 16.58 23.8901 16.6525 24.2976 16.755C25.1226 16.9525 25.1401 17.485 25.0676 19.3075C25.0451 19.825 25.0226 20.41 25.0226 21.1C25.0226 21.25 25.0151 21.41 25.0151 21.58C24.9901 22.5075 24.9601 23.56 25.6151 23.9925C25.7006 24.0461 25.7993 24.0747 25.9001 24.075C26.1276 24.075 26.8126 24.075 28.6676 20.8925C29.2397 19.8681 29.7369 18.8037 30.1551 17.7075C30.1926 17.6425 30.3026 17.4425 30.4326 17.365C30.5286 17.3161 30.6349 17.2912 30.7426 17.2925H35.1951C35.6801 17.2925 36.0126 17.365 36.0751 17.5525C36.1851 17.85 36.0551 18.7575 34.0226 21.51L33.1151 22.7075C31.2726 25.1225 31.2726 25.245 33.2301 27.0775V27.0775Z"/>
</symbol>

<symbol id="stumbleupon" viewBox="0 0 50 50">
  <g clip-path="url(#clip0_1355_10)">
    <path fill-rule="evenodd" clip-rule="evenodd" d="M44.7441 9.66919C48.1583 14.0494 50.0085 19.4463 49.9999 24.9999C49.9999 38.8051 38.805 49.9999 25.0006 49.9999C15.2871 49.9999 6.86596 44.4576 2.7275 36.3647H13.6236C18.8159 36.3647 22.4429 33.566 22.4429 29.0923C22.4429 19.6108 11.5051 23.4737 11.5051 20.1089C11.5051 18.4878 12.8057 17.898 15.1858 17.898H22.7692C24.8711 17.898 27.3435 18.275 27.3435 20.5685V28.1243C27.3435 33.5955 31.6159 36.364 36.0441 36.364C40.548 36.364 44.7435 33.5955 44.7435 28.1243V9.66919H44.7441Z"/>
    <path fill-rule="evenodd" clip-rule="evenodd" d="M25.0005 2.43241e-05C30.0173 -0.00698868 34.919 1.50262 39.0626 4.33079V28.3013C39.0626 29.9628 37.7037 31.3224 36.0447 31.3224C34.3838 31.3224 33.0261 29.9628 33.0261 28.3013V21.1186C33.0261 15.3846 30.1242 12.9994 26.3447 12.9994H14.0441C9.59088 12.9994 5.89665 15.834 5.89665 20.3289C5.89665 22.6289 6.8819 25.9994 11.5415 26.8353C15.337 27.5186 16.8351 27.3199 16.8351 29.3506C16.8351 31.3224 14.6261 31.3224 11.7101 31.3224H0.808189C0.269676 29.2582 -0.0019826 27.1334 -0.000143311 25C-0.000143311 11.1981 11.196 2.43241e-05 25.0005 2.43241e-05Z"/>
  </g>
  <defs>
    <clipPath id="clip0_1355_10">
      <rect width="50" height="50"/>
    </clipPath>
  </defs>
</symbol>

</svg>

