<svg width="48" height="48" viewBox="0 0 48 48" fill="none" xmlns="http://www.w3.org/2000/svg">
<path d="M31.5001 23.9998C31.5001 25.9889 30.71 27.8965 29.3034 29.3031C27.8969 30.7096 25.9892 31.4998 24.0001 31.4998C22.011 31.4998 20.1033 30.7096 18.6968 29.3031C17.2903 27.8965 16.5001 25.9889 16.5001 23.9998C16.5001 23.5723 16.5451 23.1548 16.6226 22.7498H14.0001V32.7423C14.0001 33.4373 14.5626 33.9998 15.2576 33.9998H32.7451C33.0782 33.9991 33.3974 33.8663 33.6327 33.6306C33.868 33.3948 34.0001 33.0753 34.0001 32.7423V22.7498H31.3776C31.4551 23.1548 31.5001 23.5723 31.5001 23.9998ZM24.0001 28.9998C24.6569 28.9996 25.3072 28.8701 25.9139 28.6186C26.5206 28.3671 27.0719 27.9986 27.5362 27.534C28.0005 27.0695 28.3687 26.5181 28.6199 25.9112C28.8711 25.3044 29.0003 24.654 29.0001 23.9973C29 23.3405 28.8704 22.6902 28.6189 22.0835C28.3675 21.4767 27.9989 20.9255 27.5344 20.4612C27.0699 19.9969 26.5185 19.6287 25.9116 19.3775C25.3048 19.1263 24.6544 18.9971 23.9976 18.9973C22.6712 18.9976 21.3993 19.5248 20.4616 20.463C19.5239 21.4011 18.9973 22.6733 18.9976 23.9998C18.998 25.3262 19.5252 26.5981 20.4633 27.5358C21.4015 28.4735 22.6737 29.0001 24.0001 28.9998ZM30.0001 18.7498H32.9976C33.1968 18.7498 33.3878 18.6708 33.5288 18.5302C33.6699 18.3897 33.7495 18.1989 33.7501 17.9998V15.0023C33.7501 14.8027 33.6708 14.6113 33.5297 14.4702C33.3886 14.329 33.1972 14.2498 32.9976 14.2498H30.0001C29.8005 14.2498 29.6091 14.329 29.468 14.4702C29.3269 14.6113 29.2476 14.8027 29.2476 15.0023V17.9998C29.2501 18.4123 29.5876 18.7498 30.0001 18.7498ZM24.0001 -0.000244141C17.6349 -0.000244141 11.5304 2.52832 7.02956 7.02919C2.52869 11.5301 0.00012207 17.6346 0.00012207 23.9998C0.00012207 30.365 2.52869 36.4694 7.02956 40.9703C11.5304 45.4712 17.6349 47.9998 24.0001 47.9998C27.1518 47.9998 30.2727 47.379 33.1845 46.1729C36.0963 44.9667 38.7421 43.1989 40.9707 40.9703C43.1993 38.7417 44.9671 36.096 46.1732 33.1842C47.3793 30.2723 48.0001 27.1515 48.0001 23.9998C48.0001 20.848 47.3793 17.7272 46.1732 14.8154C44.9671 11.9035 43.1993 9.2578 40.9707 7.02919C38.7421 4.80059 36.0963 3.03276 33.1845 1.82665C30.2727 0.620534 27.1518 -0.000244141 24.0001 -0.000244141ZM36.5001 33.7223C36.5001 35.2498 35.2501 36.4998 33.7226 36.4998H14.2776C12.7501 36.4998 11.5001 35.2498 11.5001 33.7223V14.2773C11.5001 12.7498 12.7501 11.4998 14.2776 11.4998H33.7226C35.2501 11.4998 36.5001 12.7498 36.5001 14.2773V33.7223Z" fill="white"/>
</svg>
