<svg width="48" height="48" viewBox="0 0 48 48" fill="none" xmlns="http://www.w3.org/2000/svg">
<path d="M24.0001 0C10.7451 0 0.00012207 10.745 0.00012207 24C0.00012207 37.255 10.7451 48 24.0001 48C37.2551 48 48.0001 37.255 48.0001 24C48.0001 10.745 37.2551 0 24.0001 0ZM33.2301 27.0775C33.2301 27.0775 35.3526 29.1725 35.8751 30.145C35.8901 30.165 35.8976 30.185 35.9026 30.195C36.1151 30.5525 36.1651 30.83 36.0601 31.0375C35.8851 31.3825 35.2851 31.5525 35.0801 31.5675H31.3301C31.0701 31.5675 30.5251 31.5 29.8651 31.045C29.3576 30.69 28.8576 30.1075 28.3701 29.54C27.6426 28.695 27.0126 27.965 26.3776 27.965C26.297 27.9649 26.2168 27.9775 26.1401 28.0025C25.6601 28.1575 25.0451 28.8425 25.0451 30.6675C25.0451 31.2375 24.5951 31.565 24.2776 31.565H22.5601C21.9751 31.565 18.9276 31.36 16.2276 28.5125C12.9226 25.025 9.94762 18.03 9.92262 17.965C9.73512 17.5125 10.1226 17.27 10.5451 17.27H14.3326C14.8376 17.27 15.0026 17.5775 15.1176 17.85C15.2526 18.1675 15.7476 19.43 16.5601 20.85C17.8776 23.165 18.6851 24.105 19.3326 24.105C19.454 24.1036 19.5733 24.0727 19.6801 24.015C20.5251 23.545 20.3676 20.5325 20.3301 19.9075C20.3301 19.79 20.3276 18.56 19.8951 17.97C19.5851 17.5425 19.0576 17.38 18.7376 17.32C18.8671 17.1413 19.0378 16.9964 19.2351 16.8975C19.8151 16.6075 20.8601 16.565 21.8976 16.565H22.4751C23.6001 16.58 23.8901 16.6525 24.2976 16.755C25.1226 16.9525 25.1401 17.485 25.0676 19.3075C25.0451 19.825 25.0226 20.41 25.0226 21.1C25.0226 21.25 25.0151 21.41 25.0151 21.58C24.9901 22.5075 24.9601 23.56 25.6151 23.9925C25.7006 24.0461 25.7993 24.0747 25.9001 24.075C26.1276 24.075 26.8126 24.075 28.6676 20.8925C29.2397 19.8681 29.7369 18.8037 30.1551 17.7075C30.1926 17.6425 30.3026 17.4425 30.4326 17.365C30.5286 17.3161 30.6349 17.2912 30.7426 17.2925H35.1951C35.6801 17.2925 36.0126 17.365 36.0751 17.5525C36.1851 17.85 36.0551 18.7575 34.0226 21.51L33.1151 22.7075C31.2726 25.1225 31.2726 25.245 33.2301 27.0775V27.0775Z" fill="white"/>
</svg>
